<?xml version="1.0" standalone="no"?>
<!DOCTYPE svg PUBLIC "-//W3C//DTD SVG 20010904//EN"
 "http://www.w3.org/TR/2001/REC-SVG-20010904/DTD/svg10.dtd">
<svg version="1.0" xmlns="http://www.w3.org/2000/svg"
 width="225.000000pt" height="225.000000pt" viewBox="0 0 225.000000 225.000000"
 preserveAspectRatio="xMidYMid meet">
<metadata>
Created by potrace 1.14, written by Peter Selinger 2001-2017
</metadata>
<g transform="translate(0.000000,225.000000) scale(0.100000,-0.100000)"
fill="#000000" stroke="none">
<path d="M612 2238 c-19 -19 -14 -42 13 -68 13 -13 32 -43 41 -67 23 -59 9
-103 -56 -177 -68 -78 -84 -111 -84 -176 -1 -115 124 -258 147 -169 3 12 -4
30 -17 47 -53 63 -69 128 -44 175 6 12 31 44 55 71 62 69 83 115 83 179 0 61
-36 145 -77 177 -30 23 -44 25 -61 8z"/>
<path d="M1002 2238 c-19 -19 -15 -34 23 -83 62 -82 55 -143 -28 -232 -75 -81
-97 -146 -77 -224 23 -87 93 -165 125 -139 23 19 18 47 -15 89 -33 40 -47 93
-36 136 4 14 31 55 62 91 31 36 62 81 70 99 31 76 9 175 -54 243 -32 34 -51
39 -70 20z"/>
<path d="M1473 2243 c-21 -8 -15 -49 11 -80 35 -42 46 -68 46 -108 0 -45 -11
-67 -68 -130 -25 -27 -53 -68 -63 -90 -37 -80 -17 -180 52 -252 34 -37 33 -37
60 -23 26 14 24 35 -6 74 -69 91 -66 148 15 240 70 80 84 110 84 181 0 66 -15
103 -65 160 -30 34 -41 39 -66 28z"/>
<path d="M143 1385 c-43 -18 -47 -41 -40 -194 22 -436 149 -693 414 -838 l78
-43 -254 0 -253 0 -34 -34 c-44 -44 -46 -86 -6 -125 31 -32 30 -32 352 -57
l205 -15 38 -37 38 -37 354 -3 c384 -3 395 -2 430 52 14 21 26 25 108 31 473
34 496 37 524 74 15 20 17 76 3 102 -24 44 -54 49 -317 50 l-248 0 43 19 c62
28 129 75 192 135 39 37 66 55 93 59 149 27 282 150 338 313 33 95 34 246 2
316 -33 72 -77 122 -128 146 -29 14 -45 27 -45 40 0 10 -9 26 -21 37 -19 17
-41 19 -230 22 l-209 3 0 -107 0 -108 80 -82 80 -82 0 -161 c0 -93 -4 -171
-10 -182 -10 -18 -23 -19 -183 -19 -121 0 -177 4 -185 12 -8 8 -12 63 -12 183
l0 171 75 74 75 74 0 113 0 113 -657 0 c-541 -1 -664 -3 -690 -15z m1940 -182
c112 -118 80 -388 -62 -516 -35 -31 -109 -77 -126 -77 -3 0 4 18 15 40 66 128
120 369 120 533 0 55 13 60 53 20z m-1731 -165 c9 -7 23 -48 33 -91 9 -44 36
-117 61 -167 71 -142 170 -219 332 -261 87 -22 95 -27 90 -60 -2 -19 -10 -25
-38 -27 -48 -5 -190 43 -258 88 -122 78 -220 226 -262 394 -24 97 -25 112 -2
125 22 13 25 13 44 -1z"/>
<path d="M1472 1047 l-52 -53 0 -127 0 -127 115 0 115 0 0 126 0 125 -51 55
c-29 30 -57 54 -63 54 -7 0 -35 -24 -64 -53z"/>
</g>
</svg>
